<?xml version="1.0" encoding="utf-8"?>
<!-- Generator: Adobe Illustrator 26.0.1, SVG Export Plug-In . SVG Version: 6.00 Build 0)  -->
<svg version="1.1" id="Layer_1" xmlns="http://www.w3.org/2000/svg" xmlns:xlink="http://www.w3.org/1999/xlink" x="0px" y="0px"
	 viewBox="0 0 43.66 43.66" style="enable-background:new 0 0 43.66 43.66;" xml:space="preserve">
<style type="text/css">
	.st0{fill:#F7252E;}
	.st1{fill:#FFFFFF;}
	.st2{display:none;}
	.st3{display:inline;fill:#FFFFFF;}
	.st4{font-family:'ZonaPro-ExtraBoldDemo';}
	.st5{font-size:30.4386px;}
</style>
<g>
	<circle class="st0" cx="21.77" cy="21.67" r="20.99"/>
</g>
<g>
	<path class="st1" d="M16.06,26.17l1.31,7.28h2.6l7.73-12.16l3.11,12.16h2.63l8.95-15.82c-0.38-1.94-1.03-3.77-1.9-5.48h-0.76
		l-6.21,11.71l-2.63-11.71h-2.72l-7.15,11.59l-1.64-11.59h-5.86l0,0.01H13.5l-2.48,12.79c-0.6,3.11-2.03,4-3.85,4
		c-1.58,0-3.07-0.81-2.7-3.47H1.11c0.55,3.02,1.75,5.82,3.45,8.24c0.51,0.08,1.05,0.13,1.63,0.13
		C11.42,33.84,14.65,31.59,16.06,26.17z"/>
</g>
<g class="st2">
	<text transform="matrix(0.9817 0 -0.1902 0.9817 9.3462 33.385)" class="st3 st4 st5">W</text>
	<text transform="matrix(0.9817 0 -0.1902 0.9817 -2.4484 33.3936)" class="st3 st4 st5">J</text>
</g>
</svg>
